Coordinates
version=1
nRows=13
nColumns=22
inDegrees=yes

Units are S.I. units (second, meters, Newtons, ...)
If the header above contains a line with 'inDegrees', this indicates whether rotational values are in degrees (yes) or radians (no).

endheader
time	pelvis_tilt	pelvis_list	pelvis_rotation	pelvis_tx	pelvis_ty	pelvis_tz	hip_flexion_r	hip_adduction_r	hip_rotation_r	knee_angle_r	ankle_angle_r	subtalar_angle_r	hip_flexion_l	hip_adduction_l	hip_rotation_l	knee_angle_l	ankle_angle_l	subtalar_angle_l	lumbar_extension	lumbar_bending	lumbar_rotation
      3.82000000	     -7.18778930	     -2.41920991	    -86.22057672	      0.09329800	      0.92716174	      0.92297728	     -5.83736891	     10.37887922	      5.71267255	    -12.81582193	     14.89857763	     -4.00980722	     23.89573237	    -11.48514914	      1.71780815	    -15.12818107	      4.06519859	      3.17662532	    -10.35162135	      4.53888392	      1.36656318
      3.83000000	     -7.12958870	     -2.31908285	    -86.37378084	      0.09616680	      0.92616775	      0.92924398	     -5.94458457	     10.14315575	      5.80405358	    -13.27823574	     15.32275179	     -3.93712244	     23.91163471	    -11.25367752	      1.69574063	    -15.31646874	      3.75366500	      3.04746013	    -10.19616537	      4.42325787	      1.38617899
      3.84000000	     -7.06751787	     -2.19120239	    -86.51159366	      0.09908365	      0.92517725	      0.93553754	     -6.01083138	      9.90733344	      5.88666852	    -13.76056004	     15.75321627	     -3.87409247	     23.99287786	    -10.99978221	      1.77925308	    -15.74360840	      3.27659674	      2.86640173	     -9.99600732	      4.30290108	      1.38349153
      3.85000000	     -7.00984018	     -2.00555949	    -86.62987056	      0.10202679	      0.92415344	      0.94184208	     -5.98594198	      9.67998584	      5.92033790	    -14.29235396	     16.14922075	     -3.80745856	     24.20963184	    -10.73614032	      1.91357363	    -16.41816968	      2.70487285	      2.57258114	     -9.71577780	      4.18160217	      1.34151117
      3.86000000	     -6.90058004	     -1.82799395	    -86.74651423	      0.10497970	      0.92329235	      0.94822417	     -5.97746096	      9.40112598	      5.94417529	    -14.82206131	     16.50371063	     -3.75865468	     24.42446078	    -10.42281725	      2.04405094	    -17.20651901	      2.01229821	      2.32465789	     -9.43177993	      3.99255735	      1.27904528
      3.87000000	     -6.74885850	     -1.66310841	    -86.86105986	      0.10793555	      0.92264033	      0.95468236	     -5.99418482	      9.07989339	      5.96319295	    -15.33911303	     16.77320359	     -3.72004244	     24.63106115	    -10.07508651	      2.14748992	    -18.06512647	      1.25511866	      2.11203547	     -9.15048588	      3.74670035	      1.21011591
      3.88000000	     -6.62355487	     -1.42848202	    -86.94595656	      0.11089467	      0.92200710	      0.96116279	     -5.92062333	      8.79072172	      5.95873382	    -15.87358643	     16.97875140	     -3.65650603	     25.00515750	     -9.75561677	      2.20807128	    -19.09251573	      0.65200427	      1.80215707	     -8.77167198	      3.52587770	      1.07683064
      3.89000000	     -6.43647411	     -1.23757011	    -87.03289269	      0.11384792	      0.92169052	      0.96776420	     -5.91899721	      8.43498846	      5.95958419	    -16.37340219	     17.09421225	     -3.60401540	     25.29157252	     -9.39347021	      2.19529823	    -20.09165552	      0.12228679	      1.59068953	     -8.42746880	      3.22809603	      0.92572665
      3.90000000	     -6.23777791	     -1.06321038	    -87.11348614	      0.11677414	      0.92161829	      0.97442236	     -5.93423799	      8.06836001	      5.96981624	    -16.86902742	     17.09775796	     -3.54683874	     25.53848852	     -9.03044266	      2.16764572	    -21.06957223	     -0.24365350	      1.41338938	     -8.09167444	      2.90594504	      0.76770885
      3.91000000	     -6.02088227	     -0.91012414	    -87.18651960	      0.11972200	      0.92179957	      0.98114233	     -5.97414507	      7.67379266	      5.95322315	    -17.35006811	     16.98750662	     -3.48413059	     25.72202649	     -8.65434389	      2.10987705	    -21.99469712	     -0.44858865	      1.26676990	     -7.76889325	      2.56411782	      0.61514337
      3.92000000	     -5.79919713	     -0.76214765	    -87.25020665	      0.12267224	      0.92218527	      0.98789676	     -6.01371911	      7.27350474	      5.98902009	    -17.83259725	     16.78117386	     -3.38640479	     25.83758360	     -8.26892085	      2.07419515	    -22.82166946	     -0.45934360	      1.10529633	     -7.44083376	      2.21881581	      0.41158876
      3.93000000	     -5.56259083	     -0.64723251	    -87.32283527	      0.12562535	      0.92282366	      0.99466899	     -6.07137833	      6.84837571	      6.02130058	    -18.32784448	     16.45175011	     -3.28358350	     25.83000107	     -7.87037344	      2.03128899	    -23.51562596	     -0.34594340	      0.96826943	     -7.14740852	      1.85785127	      0.23036612
      3.94000000	     -5.31898246	     -0.54567008	    -87.40867008	      0.12858163	      0.92364377	      1.00141590	     -6.10877020	      6.40781282	      6.07526794	    -18.86522513	     16.02833665	     -3.14208605	     25.71695175	     -7.46617909	      1.97849909	    -24.06041315	     -0.13781804	      0.82013843	     -6.87061030	      1.49692776	      0.06294597
